<svg xmlns="http://www.w3.org/2000/svg" height="100" width="100" vector-effect="non-scaling-stroke">
 <g fill="none" stroke="#000">
  <line y2="50" x1="50" x2="50" y1="2"/>
  <line y2="74" x1="50" x2="6" y1="50"/>
 </g>
 <g stroke="none" fill="#000">
  <path d="m 51.499,49.311 -0.75,1.299 -0.749,1.3 2.419,1.812 1.858,-3.223 -2.778,-1.188 m 9.725,4.16 -2.758,4.782 2.419,1.813 3.118,-5.407 -2.779,-1.188 m 9.726,4.16 -4.02,6.966 2.419,1.813 4.377,-7.59 -2.779,-1.188 m 9.726,4.16 -5.276,9.15 2.419,1.813 5.636,-9.774 -2.779,-1.188 m 9.725,4.16 -6.536,11.334 2.419,1.813 6.895,-11.957 -2.779,-1.189" />
  <path d="M 51.898,50.2 49.3,51.7 69.104,98 82.094,90.5"/>
 </g>
 <circle id="hotspot" r="2" cy="50" cx="50"/>
</svg>

